<?xml version="1.0"?>
<svg version="1.1" id="圖層_1" xmlns="http://www.w3.org/2000/svg" x="0" y="0" viewBox="0 0 100 100" xml:space="preserve"><path d="M72.903 14.078H15.427c-4.247 0-7.927 3.078-7.927 7.326v29.952c0 4.247 3.679 8.055 7.927 8.055h6.24v14.091c6.611-2.188 11.916-7.48 13.731-14.091h37.505c4.247 0 7.319-3.808 7.319-8.055V21.403c0-4.247-3.072-7.325-7.319-7.325z" fill="#abbd81"/><path d="M85.889 26.057v25.576c0 6.863-6.067 12.434-12.986 12.434H38.902c-1.068 2.833-2.531 4.585-4.335 6.619.7.213 1.442-.008 2.212-.008h28.297c1.815 7.556 6.647 13.057 14.203 15.244V70.678h3.066c5.74 0 10.156-3.966 10.156-9.705v-27.15c-.001-4.132-2.834-7.504-6.612-7.766z" fill="#849b87"/><g><circle cx="23.2" cy="37.5" r="4.5" fill="#f5e6c8"/><circle cx="43" cy="37.5" r="4.5" fill="#fcedce"/><circle cx="62.8" cy="37.5" r="4.5" fill="#fff2d9"/></g><metadata xmlns:d="https://loading.io/stock/"><d:name>discussion</d:name><d:tags>sending,typing,thread,interview,talk,chitchat,chat,discussion,conversation</d:tags><d:license>pro</d:license><d:slug>ctzjdw</d:slug></metadata></svg>